<mxfile host="app.diagrams.net" modified="2023-06-14T07:00:11.381Z" agent="Mozilla/5.0 (Macintosh; Intel Mac OS X 10.15; rv:109.0) Gecko/20100101 Firefox/114.0" etag="cac6BqvKpUnbFqEMB3pI" version="21.3.8" type="device">
  <diagram name="Page-1" id="58cdce13-f638-feb5-8d6f-7d28b1aa9fa0">
    <mxGraphModel dx="1194" dy="589" grid="1" gridSize="10" guides="1" tooltips="1" connect="1" arrows="1" fold="1" page="1" pageScale="1" pageWidth="1100" pageHeight="850" background="none" math="0" shadow="0">
      <root>
        <mxCell id="0" />
        <mxCell id="1" parent="0" />
        <mxCell id="QrK04Kqp4L2BtI4qc8aN-3" style="edgeStyle=orthogonalEdgeStyle;rounded=0;orthogonalLoop=1;jettySize=auto;html=1;endArrow=open;endFill=0;" parent="1" source="382b91b5511bd0f7-1" target="QrK04Kqp4L2BtI4qc8aN-2" edge="1">
          <mxGeometry relative="1" as="geometry" />
        </mxCell>
        <mxCell id="382b91b5511bd0f7-1" value="" style="ellipse;html=1;shape=startState;fillColor=#000000;strokeColor=none;rounded=1;shadow=0;comic=0;labelBackgroundColor=none;fontFamily=Verdana;fontSize=12;fontColor=#000000;align=center;direction=south;" parent="1" vertex="1">
          <mxGeometry x="130" y="135" width="65" height="65" as="geometry" />
        </mxCell>
        <mxCell id="QrK04Kqp4L2BtI4qc8aN-1" value="sd:TarifBerechnung &lt;br&gt;{protocol}" style="shape=umlFrame;whiteSpace=wrap;html=1;pointerEvents=0;width=120;height=30;" parent="1" vertex="1">
          <mxGeometry x="110" y="80" width="710" height="140" as="geometry" />
        </mxCell>
        <mxCell id="iklHRkgdmMPS3YyHM3nJ-27" style="edgeStyle=orthogonalEdgeStyle;rounded=0;orthogonalLoop=1;jettySize=auto;html=1;endArrow=open;endFill=0;" parent="1" source="QrK04Kqp4L2BtI4qc8aN-2" target="iklHRkgdmMPS3YyHM3nJ-26" edge="1">
          <mxGeometry relative="1" as="geometry" />
        </mxCell>
        <mxCell id="iklHRkgdmMPS3YyHM3nJ-28" value="[NO-EMERGENCY] &lt;br&gt;tarifBerechnen" style="edgeLabel;html=1;align=center;verticalAlign=middle;resizable=0;points=[];" parent="iklHRkgdmMPS3YyHM3nJ-27" connectable="0" vertex="1">
          <mxGeometry x="0.2695" y="1" relative="1" as="geometry">
            <mxPoint x="-17" y="-17" as="offset" />
          </mxGeometry>
        </mxCell>
        <mxCell id="QrK04Kqp4L2BtI4qc8aN-2" value="Kein Tarif berechnet" style="html=1;whiteSpace=wrap;rounded=1;" parent="1" vertex="1">
          <mxGeometry x="290" y="143" width="110" height="50" as="geometry" />
        </mxCell>
        <mxCell id="iklHRkgdmMPS3YyHM3nJ-1" value="sd: ZeitplanStatus" style="shape=umlFrame;whiteSpace=wrap;html=1;pointerEvents=0;width=140;height=30;" parent="1" vertex="1">
          <mxGeometry x="61" y="270" width="810" height="460" as="geometry" />
        </mxCell>
        <mxCell id="iklHRkgdmMPS3YyHM3nJ-4" style="edgeStyle=orthogonalEdgeStyle;rounded=0;orthogonalLoop=1;jettySize=auto;html=1;endArrow=open;endFill=0;" parent="1" target="iklHRkgdmMPS3YyHM3nJ-3" edge="1">
          <mxGeometry relative="1" as="geometry">
            <mxPoint x="154.99999472406853" y="347.4814814814814" as="sourcePoint" />
          </mxGeometry>
        </mxCell>
        <mxCell id="iklHRkgdmMPS3YyHM3nJ-5" value="Zeitplan erstellen" style="edgeLabel;html=1;align=center;verticalAlign=middle;resizable=0;points=[];" parent="iklHRkgdmMPS3YyHM3nJ-4" connectable="0" vertex="1">
          <mxGeometry x="-0.359" y="1" relative="1" as="geometry">
            <mxPoint x="18" y="-7" as="offset" />
          </mxGeometry>
        </mxCell>
        <mxCell id="iklHRkgdmMPS3YyHM3nJ-7" style="edgeStyle=orthogonalEdgeStyle;rounded=0;orthogonalLoop=1;jettySize=auto;html=1;endArrow=open;endFill=0;" parent="1" source="iklHRkgdmMPS3YyHM3nJ-3" target="iklHRkgdmMPS3YyHM3nJ-6" edge="1">
          <mxGeometry relative="1" as="geometry" />
        </mxCell>
        <mxCell id="iklHRkgdmMPS3YyHM3nJ-9" value="currentTime &amp;gt;= startTime" style="edgeLabel;html=1;align=center;verticalAlign=middle;resizable=0;points=[];" parent="iklHRkgdmMPS3YyHM3nJ-7" connectable="0" vertex="1">
          <mxGeometry x="0.2068" y="1" relative="1" as="geometry">
            <mxPoint x="-19" y="-8" as="offset" />
          </mxGeometry>
        </mxCell>
        <mxCell id="iklHRkgdmMPS3YyHM3nJ-3" value="&lt;div&gt;WAITING_FOR_&lt;br&gt;START&lt;/div&gt;" style="html=1;whiteSpace=wrap;rounded=1;" parent="1" vertex="1">
          <mxGeometry x="270" y="326.25" width="110" height="42.5" as="geometry" />
        </mxCell>
        <mxCell id="iklHRkgdmMPS3YyHM3nJ-11" style="edgeStyle=orthogonalEdgeStyle;rounded=0;orthogonalLoop=1;jettySize=auto;html=1;entryX=0.5;entryY=0;entryDx=0;entryDy=0;endArrow=open;endFill=0;" parent="1" source="iklHRkgdmMPS3YyHM3nJ-6" target="iklHRkgdmMPS3YyHM3nJ-36" edge="1">
          <mxGeometry relative="1" as="geometry">
            <mxPoint x="582.5" y="430" as="targetPoint" />
          </mxGeometry>
        </mxCell>
        <mxCell id="iklHRkgdmMPS3YyHM3nJ-20" value="currentPrice &amp;lt;= desiredPrice&lt;br&gt;&lt;div&gt;OR&lt;/div&gt;&lt;div&gt;canExceedPrice&lt;br&gt;&lt;/div&gt;" style="edgeLabel;html=1;align=center;verticalAlign=middle;resizable=0;points=[];" parent="iklHRkgdmMPS3YyHM3nJ-11" connectable="0" vertex="1">
          <mxGeometry x="-0.1198" y="1" relative="1" as="geometry">
            <mxPoint as="offset" />
          </mxGeometry>
        </mxCell>
        <mxCell id="iklHRkgdmMPS3YyHM3nJ-13" style="edgeStyle=orthogonalEdgeStyle;rounded=0;orthogonalLoop=1;jettySize=auto;html=1;entryX=0;entryY=0.5;entryDx=0;entryDy=0;endArrow=open;endFill=0;" parent="1" source="iklHRkgdmMPS3YyHM3nJ-6" target="iklHRkgdmMPS3YyHM3nJ-12" edge="1">
          <mxGeometry relative="1" as="geometry" />
        </mxCell>
        <mxCell id="iklHRkgdmMPS3YyHM3nJ-14" value="Duration &amp;gt; EndTime" style="edgeLabel;html=1;align=center;verticalAlign=middle;resizable=0;points=[];" parent="iklHRkgdmMPS3YyHM3nJ-13" connectable="0" vertex="1">
          <mxGeometry x="-0.3167" y="-2" relative="1" as="geometry">
            <mxPoint x="16" y="-10" as="offset" />
          </mxGeometry>
        </mxCell>
        <mxCell id="iklHRkgdmMPS3YyHM3nJ-6" value="&lt;div&gt;WAITING_FOR_&lt;br&gt;PRICE&lt;br&gt;&lt;/div&gt;" style="html=1;whiteSpace=wrap;rounded=1;" parent="1" vertex="1">
          <mxGeometry x="527.5" y="326.25" width="110" height="42.5" as="geometry" />
        </mxCell>
        <mxCell id="iklHRkgdmMPS3YyHM3nJ-18" style="edgeStyle=orthogonalEdgeStyle;rounded=0;orthogonalLoop=1;jettySize=auto;html=1;entryX=0.5;entryY=0;entryDx=0;entryDy=0;endArrow=open;endFill=0;exitX=0.486;exitY=0.863;exitDx=0;exitDy=0;exitPerimeter=0;" parent="1" source="iklHRkgdmMPS3YyHM3nJ-36" target="iklHRkgdmMPS3YyHM3nJ-17" edge="1">
          <mxGeometry relative="1" as="geometry">
            <mxPoint x="583.94" y="500.836" as="sourcePoint" />
          </mxGeometry>
        </mxCell>
        <mxCell id="iklHRkgdmMPS3YyHM3nJ-21" value="runTime &amp;gt;= &lt;br&gt;&lt;div&gt;duration &lt;br&gt;OR&lt;br&gt;DeviceFinished&lt;br&gt;&lt;/div&gt;" style="edgeLabel;html=1;align=center;verticalAlign=middle;resizable=0;points=[];" parent="iklHRkgdmMPS3YyHM3nJ-18" connectable="0" vertex="1">
          <mxGeometry x="-0.485" y="-1" relative="1" as="geometry">
            <mxPoint x="-1" y="25" as="offset" />
          </mxGeometry>
        </mxCell>
        <mxCell id="iklHRkgdmMPS3YyHM3nJ-16" style="edgeStyle=orthogonalEdgeStyle;rounded=0;orthogonalLoop=1;jettySize=auto;html=1;endArrow=open;endFill=0;" parent="1" source="iklHRkgdmMPS3YyHM3nJ-12" target="iklHRkgdmMPS3YyHM3nJ-15" edge="1">
          <mxGeometry relative="1" as="geometry" />
        </mxCell>
        <mxCell id="iklHRkgdmMPS3YyHM3nJ-12" value="CANCELLED_BY_&lt;br&gt;PRICE" style="html=1;whiteSpace=wrap;rounded=1;" parent="1" vertex="1">
          <mxGeometry x="752" y="326" width="110" height="42.5" as="geometry" />
        </mxCell>
        <mxCell id="iklHRkgdmMPS3YyHM3nJ-15" value="" style="verticalLabelPosition=bottom;verticalAlign=top;html=1;shape=mxgraph.flowchart.or;" parent="1" vertex="1">
          <mxGeometry x="777" y="621.25" width="60" height="60" as="geometry" />
        </mxCell>
        <mxCell id="iklHRkgdmMPS3YyHM3nJ-19" style="edgeStyle=orthogonalEdgeStyle;rounded=0;orthogonalLoop=1;jettySize=auto;html=1;endArrow=open;endFill=0;" parent="1" source="iklHRkgdmMPS3YyHM3nJ-17" target="iklHRkgdmMPS3YyHM3nJ-15" edge="1">
          <mxGeometry relative="1" as="geometry" />
        </mxCell>
        <mxCell id="iklHRkgdmMPS3YyHM3nJ-17" value="FINISHED" style="html=1;whiteSpace=wrap;rounded=1;" parent="1" vertex="1">
          <mxGeometry x="520" y="630" width="120" height="42.5" as="geometry" />
        </mxCell>
        <mxCell id="iklHRkgdmMPS3YyHM3nJ-32" style="edgeStyle=orthogonalEdgeStyle;rounded=0;orthogonalLoop=1;jettySize=auto;html=1;entryX=0;entryY=0.5;entryDx=0;entryDy=0;entryPerimeter=0;endArrow=open;endFill=0;" parent="1" source="iklHRkgdmMPS3YyHM3nJ-26" target="iklHRkgdmMPS3YyHM3nJ-31" edge="1">
          <mxGeometry relative="1" as="geometry" />
        </mxCell>
        <mxCell id="iklHRkgdmMPS3YyHM3nJ-33" value="[NEW-PRICE]&lt;br&gt;publishTarif" style="edgeLabel;html=1;align=center;verticalAlign=middle;resizable=0;points=[];" parent="iklHRkgdmMPS3YyHM3nJ-32" connectable="0" vertex="1">
          <mxGeometry x="-0.3514" y="1" relative="1" as="geometry">
            <mxPoint x="11" y="-17" as="offset" />
          </mxGeometry>
        </mxCell>
        <mxCell id="iklHRkgdmMPS3YyHM3nJ-34" style="edgeStyle=orthogonalEdgeStyle;rounded=0;orthogonalLoop=1;jettySize=auto;html=1;entryX=0.5;entryY=0;entryDx=0;entryDy=0;endArrow=open;endFill=0;" parent="1" source="iklHRkgdmMPS3YyHM3nJ-26" target="QrK04Kqp4L2BtI4qc8aN-2" edge="1">
          <mxGeometry relative="1" as="geometry">
            <Array as="points">
              <mxPoint x="580" y="100" />
              <mxPoint x="345" y="100" />
            </Array>
          </mxGeometry>
        </mxCell>
        <mxCell id="iklHRkgdmMPS3YyHM3nJ-26" value="Tarif berechnet" style="html=1;whiteSpace=wrap;rounded=1;" parent="1" vertex="1">
          <mxGeometry x="530" y="143" width="110" height="50" as="geometry" />
        </mxCell>
        <mxCell id="iklHRkgdmMPS3YyHM3nJ-29" value="" style="ellipse;html=1;shape=startState;fillColor=default;strokeColor=default;rounded=1;shadow=0;comic=0;labelBackgroundColor=none;fontFamily=Verdana;fontSize=12;fontColor=#000000;align=center;direction=south;" parent="1" vertex="1">
          <mxGeometry x="90" y="315" width="65" height="65" as="geometry" />
        </mxCell>
        <mxCell id="iklHRkgdmMPS3YyHM3nJ-30" value="" style="ellipse;html=1;shape=startState;fillColor=default;strokeColor=default;rounded=1;shadow=0;comic=0;labelBackgroundColor=none;fontFamily=Verdana;fontSize=12;fontColor=#000000;align=center;direction=south;" parent="1" vertex="1">
          <mxGeometry x="130" y="135" width="65" height="65" as="geometry" />
        </mxCell>
        <mxCell id="iklHRkgdmMPS3YyHM3nJ-31" value="" style="verticalLabelPosition=bottom;verticalAlign=top;html=1;shape=mxgraph.flowchart.or;" parent="1" vertex="1">
          <mxGeometry x="730" y="138" width="60" height="60" as="geometry" />
        </mxCell>
        <mxCell id="iklHRkgdmMPS3YyHM3nJ-36" value="RUNNING&lt;br&gt;&lt;br&gt;entry / turn-on Device&lt;br&gt;do / check Device-state&lt;br&gt;exit / turn-off Device" style="html=1;whiteSpace=wrap;rounded=1;" parent="1" vertex="1">
          <mxGeometry x="492.5" y="441" width="180" height="80" as="geometry" />
        </mxCell>
        <mxCell id="iklHRkgdmMPS3YyHM3nJ-37" value="" style="line;strokeWidth=1;fillColor=none;align=left;verticalAlign=middle;spacingTop=-1;spacingLeft=3;spacingRight=3;rotatable=0;labelPosition=right;points=[];portConstraint=eastwest;strokeColor=inherit;" parent="1" vertex="1">
          <mxGeometry x="492.5" y="461" width="180" height="8" as="geometry" />
        </mxCell>
      </root>
    </mxGraphModel>
  </diagram>
</mxfile>
